ffmpeg started on 2016-11-29 at 12:53:31
Report written to "Output/x264/results/ffmpeg/old_town_cross_2160p50veryfast500k.log"
Command line:
Tools/ffmpeg/ffmpeg -benchmark -y -i Input/y4m/old_town_cross_2160p50.y4m -c:v libx264 -preset veryfast -b:v 500k -an Output/x264/encoded/old_town_cross_2160p50veryfast500k.mkv
ffmpeg version N-82227-gdb23fde Copyright (c) 2000-2016 the FFmpeg developers
  built with gcc 5.4.0 (Ubuntu 5.4.0-6ubuntu1~16.04.2) 20160609
  configuration: --prefix=/home/jaroslav/ffmpeg_build --pkg-config-flags=--static --extra-cflags=-I/home/jaroslav/ffmpeg_build/include --extra-ldflags=-L/home/jaroslav/ffmpeg_build/lib --bindir=/home/jaroslav/bin --enable-gpl --enable-libass --enable-libfdk-aac --enable-libfreetype --enable-libmp3lame --enable-libopus --enable-libtheora --enable-libvorbis --enable-libvpx --enable-libx264 --enable-libx265 --enable-nvenc --enable-libmfx --enable-libxvid --enable-libgsm --enable-libopencore-amrnb --enable-version3 --enable-nonfree
  libavutil      55. 35.100 / 55. 35.100
  libavcodec     57. 66.101 / 57. 66.101
  libavformat    57. 57.100 / 57. 57.100
  libavdevice    57.  2.100 / 57.  2.100
  libavfilter     6. 66.100 /  6. 66.100
  libswscale      4.  3.100 /  4.  3.100
  libswresample   2.  4.100 /  2.  4.100
  libpostproc    54.  2.100 / 54.  2.100
Input #0, yuv4mpegpipe, from 'Input/y4m/old_town_cross_2160p50.y4m':
  Duration: 00:00:10.00, start: 0.000000, bitrate: 4976642 kb/s
    Stream #0:0: Video: rawvideo (I420 / 0x30323449), yuv420p(progressive), 3840x2160, SAR 1:1 DAR 16:9, 50 fps, 50 tbr, 50 tbn, 50 tbc
[libx264 @ 0x38b4120] using SAR=1/1
[libx264 @ 0x38b4120] using cpu capabilities: MMX2 SSE2Fast SSSE3 SSE4.2 AVX FMA3 AVX2 LZCNT BMI2
[libx264 @ 0x38b4120] profile High, level 5.2
[libx264 @ 0x38b4120] 264 - core 148 - H.264/MPEG-4 AVC codec - Copyleft 2003-2016 - http://www.videolan.org/x264.html - options: cabac=1 ref=1 deblock=1:0:0 analyse=0x3:0x113 me=hex subme=2 psy=1 psy_rd=1.00:0.00 mixed_ref=0 me_range=16 chroma_me=1 trellis=0 8x8dct=1 cqm=0 deadzone=21,11 fast_pskip=1 chroma_qp_offset=0 threads=6 lookahead_threads=2 sliced_threads=0 nr=0 decimate=1 interlaced=0 bluray_compat=0 constrained_intra=0 bframes=3 b_pyramid=2 b_adapt=1 b_bias=0 direct=1 weightb=1 open_gop=0 weightp=1 keyint=250 keyint_min=25 scenecut=40 intra_refresh=0 rc_lookahead=10 rc=abr mbtree=1 bitrate=500 ratetol=1.0 qcomp=0.60 qpmin=0 qpmax=69 qpstep=4 ip_ratio=1.40 aq=1:1.00
Output #0, matroska, to 'Output/x264/encoded/old_town_cross_2160p50veryfast500k.mkv':
  Metadata:
    encoder         : Lavf57.57.100
    Stream #0:0: Video: h264 (libx264) (H264 / 0x34363248), yuv420p, 3840x2160 [SAR 1:1 DAR 16:9], q=-1--1, 500 kb/s, 50 fps, 1k tbn, 50 tbc
    Metadata:
      encoder         : Lavc57.66.101 libx264
    Side data:
      cpb: bitrate max/min/avg: 0/0/500000 buffer size: 0 vbv_delay: -1
Stream mapping:
  Stream #0:0 -> #0:0 (rawvideo (native) -> h264 (libx264))
Press [q] to stop, [?] for help
frame=   22 fps=0.0 q=60.0 size=       1kB time=-00:00:00.01 bitrate=N/A speed=N/A    frame=   38 fps= 34 q=64.0 size=       1kB time=00:00:00.30 bitrate=  19.5kbits/s speed=0.27x    frame=   54 fps= 33 q=64.0 size=       1kB time=00:00:00.62 bitrate=   9.4kbits/s speed=0.382x    frame=   70 fps= 33 q=64.0 size=       1kB time=00:00:00.94 bitrate=   6.2kbits/s speed=0.438x    frame=   86 fps= 32 q=63.0 size=       1kB time=00:00:01.26 bitrate=   4.7kbits/s speed=0.465x    frame=  102 fps= 31 q=63.0 size=       1kB time=00:00:01.58 bitrate=   3.7kbits/s speed=0.487x    frame=  118 fps= 31 q=63.0 size=       1kB time=00:00:01.90 bitrate=   3.1kbits/s speed=0.505x    frame=  134 fps= 31 q=63.0 size=       1kB time=00:00:02.22 bitrate=   2.6kbits/s speed=0.517x    frame=  150 fps= 31 q=63.0 size=       1kB time=00:00:02.54 bitrate=   2.3kbits/s speed=0.526x    frame=  166 fps= 31 q=64.0 size=       1kB time=00:00:02.86 bitrate=   2.0kbits/s speed=0.535x    frame=  182 fps= 31 q=64.0 size=       1kB time=00:00:03.18 bitrate=   1.8kbits/s speed=0.541x    frame=  198 fps= 31 q=64.0 size=       1kB time=00:00:03.50 bitrate=   1.7kbits/s speed=0.546x    frame=  214 fps= 31 q=64.0 size=       1kB time=00:00:03.82 bitrate=   1.5kbits/s speed=0.552x    frame=  230 fps= 31 q=64.0 size=       1kB time=00:00:04.14 bitrate=   1.4kbits/s speed=0.555x    frame=  236 fps= 29 q=64.0 size=       1kB time=00:00:04.26 bitrate=   1.4kbits/s speed=0.532x    frame=  244 fps= 29 q=64.0 size=       1kB time=00:00:04.42 bitrate=   1.3kbits/s speed=0.52x    frame=  252 fps= 28 q=64.0 size=       1kB time=00:00:04.58 bitrate=   1.3kbits/s speed=0.508x    frame=  260 fps= 27 q=64.0 size=       1kB time=00:00:04.74 bitrate=   1.2kbits/s speed=0.498x    frame=  271 fps= 27 q=65.0 size=     322kB time=00:00:04.96 bitrate= 531.7kbits/s speed=0.494x    frame=  287 fps= 27 q=65.0 size=     322kB time=00:00:05.28 bitrate= 499.5kbits/s speed=0.499x    frame=  303 fps= 27 q=65.0 size=     322kB time=00:00:05.60 bitrate= 470.9kbits/s speed=0.504x    frame=  319 fps= 27 q=64.0 size=     322kB time=00:00:05.92 bitrate= 445.5kbits/s speed=0.508x    frame=  335 fps= 28 q=64.0 size=     322kB time=00:00:06.24 bitrate= 422.6kbits/s speed=0.512x    frame=  351 fps= 28 q=64.0 size=     322kB time=00:00:06.56 bitrate= 402.0kbits/s speed=0.515x    frame=  367 fps= 28 q=64.0 size=     322kB time=00:00:06.88 bitrate= 383.3kbits/s speed=0.519x    frame=  383 fps= 28 q=64.0 size=     322kB time=00:00:07.20 bitrate= 366.3kbits/s speed=0.522x    frame=  399 fps= 28 q=64.0 size=     322kB time=00:00:07.52 bitrate= 350.7kbits/s speed=0.526x    frame=  415 fps= 28 q=64.0 size=     322kB time=00:00:07.84 bitrate= 336.4kbits/s speed=0.529x    frame=  431 fps= 28 q=64.0 size=     322kB time=00:00:08.16 bitrate= 323.2kbits/s speed=0.532x    frame=  447 fps= 28 q=64.0 size=     322kB time=00:00:08.48 bitrate= 311.0kbits/s speed=0.535x    frame=  463 fps= 28 q=64.0 size=     322kB time=00:00:08.80 bitrate= 299.7kbits/s speed=0.537x    frame=  474 fps= 28 q=64.0 size=     322kB time=00:00:09.02 bitrate= 292.4kbits/s speed=0.532x    frame=  481 fps= 28 q=64.0 size=     322kB time=00:00:09.16 bitrate= 287.9kbits/s speed=0.525x    frame=  489 fps= 27 q=65.0 size=     322kB time=00:00:09.32 bitrate= 283.0kbits/s speed=0.519x    frame=  497 fps= 27 q=65.0 size=     322kB time=00:00:09.48 bitrate= 278.2kbits/s speed=0.514x    frame=  500 fps= 26 q=-1.0 Lsize=     657kB time=00:00:09.94 bitrate= 541.3kbits/s speed=0.519x    
video:653kB audio:0kB subtitle:0kB other streams:0kB global headers:0kB muxing overhead: 0.652876%
bench: utime=51.768s
bench: maxrss=1082108kB
[libx264 @ 0x38b4120] frame I:3     Avg QP:51.00  size: 19005
[libx264 @ 0x38b4120] frame P:183   Avg QP:51.00  size:  2749
[libx264 @ 0x38b4120] frame B:314   Avg QP:51.00  size:   342
[libx264 @ 0x38b4120] consecutive B-frames: 16.0%  0.8%  0.0% 83.2%
[libx264 @ 0x38b4120] mb I  I16..4: 85.7% 14.3%  0.0%
[libx264 @ 0x38b4120] mb P  I16..4:  1.3%  0.5%  0.0%  P16..4:  1.6%  0.2%  0.1%  0.0%  0.0%    skip:96.3%
[libx264 @ 0x38b4120] mb B  I16..4:  0.0%  0.0%  0.0%  B16..8:  0.1%  0.0%  0.0%  direct: 0.0%  skip:99.8%  L0:53.5% L1:46.5% BI: 0.0%
[libx264 @ 0x38b4120] final ratefactor: 56.42
[libx264 @ 0x38b4120] 8x8 transform intra:22.3% inter:81.4%
[libx264 @ 0x38b4120] coded y,uvDC,uvAC intra: 6.5% 17.2% 0.0% inter: 0.0% 0.1% 0.0%
[libx264 @ 0x38b4120] i16 v,h,dc,p: 78% 19%  4%  0%
[libx264 @ 0x38b4120] i8 v,h,dc,ddl,ddr,vr,hd,vl,hu:  6% 12% 73%  1%  1%  1%  2%  1%  3%
[libx264 @ 0x38b4120] i8c dc,h,v,p: 100%  0%  0%  0%
[libx264 @ 0x38b4120] Weighted P-Frames: Y:0.5% UV:0.0%
[libx264 @ 0x38b4120] kb/s:534.07
